<?xml version="1.0" encoding="UTF-8"?>
<svg width="304px" height="102px" viewBox="0 0 304 102" version="1.1" xmlns="http://www.w3.org/2000/svg" xmlns:xlink="http://www.w3.org/1999/xlink">
    <title>Group 2</title>
    <g id="Page-1" stroke="none" stroke-width="1" fill="none" fill-rule="evenodd">
        <g id="DeskHD-WUXGA-23-24'" transform="translate(-662.000000, -405.000000)">
            <g id="Group-2" transform="translate(662.000000, 405.000000)">
                <g id="029-africa" fill-rule="nonzero">
                    <path d="M89.2262311,71.396115 C88.8504636,69.6990313 86.6545407,69.2448288 85.5893022,70.6171976 C85.1150672,71.2281796 84.5238649,71.7517078 83.8013726,72.0033121 C81.3778806,72.8475709 79.2704789,74.4303072 80.4294106,77.3850139 C81.5885412,80.3397207 76.2146072,84.4550343 81.5885412,86.9876116 C85.9970966,89.0649904 90.8309517,78.6444298 89.2262311,71.396115 L89.2262311,71.396115 Z" id="Path" fill="#43CB8E"></path>
                    <path d="M89.4915959,37.2863048 C89.3511555,36.0904374 85.5576733,37.7787559 82.0454698,38.4118504 C80.8793768,38.6220187 79.6442572,38.2018814 78.5135728,37.4211711 C77.1260773,41.315559 74.2540115,44.503941 70.5776956,46.3002321 C70.1350895,46.5165759 69.7662843,46.8590207 69.5241937,47.288521 L64.539952,56.1343137 C64.1639855,56.8012742 63.2049725,56.8012742 62.829006,56.1343137 L57.8447643,47.2887202 C57.6022759,46.8586223 57.2326749,46.5159783 56.7894721,46.2994353 C51.6598169,43.7923571 48.0923125,38.5769969 47.9467,32.5112023 C47.7364373,23.7484808 54.5637106,16.5659059 63.313784,16.3645029 C64.7327094,16.3318322 66.109264,16.4892094 67.4223619,16.8095417 C67.3921254,16.4411994 67.4136092,16.0469596 67.5045175,15.6192523 C68.2069185,12.312937 67.9260377,9.07674428 63.570595,10.4134542 C59.2153512,11.749965 56.6162092,9.92100312 53.6657673,8.65461486 C50.7153254,7.38822659 51.2772859,10.3429333 47.3435622,11.4686782 C43.4096397,12.5942238 41.6535379,8.44364975 39.0543959,7.95119863 C37.6491962,7.68505191 37.4964225,6.08219522 37.6527769,4.66580061 C37.8682116,2.71312832 36.0735186,1.14433682 34.1720033,1.62702657 C32.1326337,2.14477757 29.4004115,3.51555272 23.9512842,4.01158965 C14.6786372,4.85584849 18.4719205,9.07674428 11.4473145,12.745027 C4.42231072,16.4131106 -2.60229525,27.0856738 4.42231072,38.6228155 C11.4471156,50.1599572 20.3684627,46.572156 25.5315371,44.8838375 C30.6946115,43.195519 33.4343929,45.516932 35.7524551,47.9439272 C38.0705174,50.3709223 33.5396237,51.4261463 38.7028971,59.7625549 C41.9200962,64.9567987 40.7010894,69.2908466 39.3253305,71.8198382 C38.4621989,73.4063595 38.6227307,75.3534538 39.6887648,76.8110853 C45.0268924,84.1103982 39.5640394,83.805206 44.7090117,89.6255719 C50.3990361,96.0624977 47.1325038,99.650299 49.8720862,100.388976 C52.6116686,101.127652 54.7190703,99.1227866 59.8823436,97.6454332 C65.045617,96.1680799 64.097147,88.9924773 66.7314986,86.4600992 C69.3658501,83.9275219 69.5765107,81.5005268 69.1549906,78.2292728 C68.7334705,74.9580188 79.2704789,72.5310236 75.5826254,65.2500382 C71.8947719,57.9690527 80.2891691,51.7078315 83.9420119,48.8939674 C87.5948548,46.0799041 89.6320363,38.4821721 89.4915959,37.2863048 L89.4915959,37.2863048 Z" id="Path" fill="#43CB8E"></path>
                    <path d="M57.9617317,93.7713649 C55.2221493,93.0326882 58.4886815,89.4448869 52.7986572,83.0079611 C47.6536849,77.1875952 53.116339,77.4929866 47.7784103,70.1934745 C46.7123761,68.7358431 46.5518444,66.7889479 47.414976,65.2022274 C48.7907349,62.6732359 50.0097417,58.3391879 46.7925425,53.1449441 C41.6294681,44.8087347 46.1603618,43.7535108 43.8421006,41.3263164 C41.5238394,38.8993213 38.784257,36.5777091 33.6211826,38.2662267 C28.4579092,39.9545452 19.5367611,43.5423465 12.5119562,32.0052048 C7.75568149,24.1937188 9.44076735,16.7794607 13.2050077,11.6662961 C12.7057082,12.0284628 12.1276349,12.3892351 11.4471156,12.7446286 C4.42231072,16.4131106 -2.60229525,27.0856738 4.42231072,38.6228155 C11.4471156,50.1599572 20.3684627,46.572156 25.5315371,44.8838375 C30.6946115,43.195519 33.4343929,45.516932 35.7524551,47.9439272 C38.0707163,50.3709223 33.5396237,51.4261463 38.7028971,59.7625549 C41.9200962,64.9567987 40.7010894,69.2908466 39.3253305,71.8198382 C38.4621989,73.4063595 38.6227307,75.3534538 39.6887648,76.8110853 C45.0268924,84.1103982 39.5640394,83.805206 44.7090117,89.6255719 C50.3990361,96.0624977 47.1325038,99.650299 49.8722851,100.388976 C52.6118675,101.127652 54.7192692,99.1227866 59.8825426,97.6454332 C62.5155017,96.8920149 63.5584606,94.6566613 64.2984582,92.3109445 C61.5899079,93.407206 59.9404295,94.3048536 57.9617317,93.7713649 L57.9617317,93.7713649 Z" id="Path" fill="#00BA66"></path>
                    <path d="M90.6582856,71.028968 C90.0105888,68.1033462 86.2306335,67.280403 84.3868062,69.6565992 C84.0279471,70.1189693 83.6577494,70.418982 83.2869549,70.5482704 C81.10436,71.3084619 79.6595744,72.430621 78.9927809,73.8832721 C78.4393741,75.0891 78.4473311,76.436169 79.0166518,77.8874256 C79.2402424,78.4573701 78.8485609,79.4851028 78.4698095,80.4789696 C77.6653605,82.5900151 76.3190423,86.1232324 80.9289089,88.2956351 C82.6313012,89.0982587 84.3947631,88.6775238 85.8831131,87.4856407 C89.6256707,84.4883026 91.9015611,76.6445444 90.6582856,71.028968 L90.6582856,71.028968 Z M84.0193934,85.1518765 C82.9995097,85.9688434 82.4184524,85.6949274 82.199437,85.591935 C80.1831426,84.6416956 80.3540183,83.9157684 81.2577304,81.5443533 C81.811734,80.0901085 82.4399362,78.4418316 81.7938308,76.7949491 C81.5292618,76.1202194 81.4996221,75.5761724 81.7039171,75.1313329 C82.0142387,74.4554079 82.9006444,73.8468164 84.2674517,73.3705014 C85.191653,73.0485754 86.024747,72.4158793 86.742863,71.4903421 C87.0332921,71.1156251 87.6427955,71.2128403 87.7452414,71.6758081 C88.8383292,76.6124713 86.6008312,83.0846576 84.0193934,85.1518765 Z" id="Shape" fill="#000000"></path>
                    <path d="M33.7805208,0.134732336 C33.1996624,0.282148934 32.6052773,0.479966072 31.917,0.709258645 C30.1193231,1.30788956 27.6572398,2.12764537 23.7915482,2.4796523 C13.8552905,3.38427226 17.0878068,8.05777685 10.7329782,11.3760448 C2.80187518,15.5176543 -4.28738111,27.1850804 3.12433111,39.3569104 C10.4650274,51.4133968 20.1100603,48.207285 25.2920325,46.4845029 C29.4767983,45.0946034 31.4859315,45.6199244 34.6500179,48.9330129 C35.0110651,49.3107181 35.0178285,49.3641068 34.8294474,50.3551846 C34.4829217,52.1785686 33.9593535,54.9338645 37.4104873,60.5062119 C40.1922416,64.9978363 39.2614759,68.7252849 37.9907489,71.0612403 C36.863844,73.1328419 37.0484455,75.7192064 38.4606075,77.6499654 C40.8538631,80.9226139 40.8053256,82.2856198 40.7540032,83.7285095 C40.6806002,85.7889553 40.8395406,87.4860391 43.5673865,90.5722255 C46.5420971,93.9373081 46.7955264,96.3139028 46.9805258,98.0492352 C47.1454339,99.5985039 47.3590783,102 51.0363888,102 C52.5812332,102 54.0166694,101.401768 55.7212498,100.691379 C56.9850144,100.164663 58.4170689,99.5676261 60.2678585,99.0381216 C64.2222702,97.9065997 65.2777614,94.2279579 66.1255758,91.2720559 C66.5789238,89.6913117 67.0074063,88.1984198 67.7402426,87.4938083 C70.7736358,84.5777487 71.0871402,81.6969494 70.6101202,77.9940039 C70.5548193,77.5653005 72.5697213,75.9809704 72.8545806,75.7506818 C75.6005286,73.5318628 79.749687,70.1787328 76.888562,64.5300874 C74.0334047,58.8933946 79.9808368,53.766086 84.8270252,50.0340555 C88.8496679,46.9351196 91.1567893,38.8405538 90.9485158,37.0675704 C90.8822741,36.5034031 90.5896568,36.0201157 90.1249701,35.7067559 C89.0637102,34.9917854 87.599629,35.3953881 85.173352,36.0639423 C81.5909283,37.0514343 81.2251069,37.076535 80.2676853,36.6693464 C80.5445876,35.671097 80.7343612,34.643165 80.8254684,33.5953119 C80.8968822,32.7731656 80.2895669,32.0488321 79.4686073,31.9773151 C78.6484433,31.9044037 77.9243597,32.5139912 77.8529459,33.3361376 C77.4210817,38.3056706 74.3590434,42.7343441 69.8983699,44.9133208 C69.1772701,45.2657262 68.5898473,45.8177416 68.1997572,46.5102012 L63.6593151,54.5683112 L59.118873,46.5102012 C58.728584,45.8177416 58.1407633,45.265527 57.4186689,44.912524 C52.6088837,42.5618269 49.5412754,37.7791543 49.4131683,32.4313184 C49.3208676,28.587331 50.7127393,24.9563008 53.3321716,22.2065829 C60.5660457,14.6116399 73.2965899,17.2766929 76.9868305,27.0231214 C77.2790499,27.7948672 78.1405901,28.1829314 78.9108242,27.8904888 C79.6812571,27.5978469 80.0689601,26.7352606 79.7769396,25.963714 C77.8927307,20.9884038 73.8545719,17.2605568 68.9813299,15.669852 C69.575715,12.7051847 69.2417215,10.6867726 67.9576666,9.50883428 C66.842896,8.48648025 65.2111218,8.2952371 63.1084943,8.94088195 C62.3145883,9.18451776 61.5743918,9.31440374 60.8461308,9.33810992 C60.0223862,9.36500349 59.3764797,10.0552717 59.4033345,10.8798086 C59.4295924,11.6882094 60.0920096,12.3254874 60.8934747,12.3254874 C60.9099854,12.3254874 60.9264961,12.3252881 60.9428079,12.3246905 C61.9386218,12.292219 62.9330433,12.1201002 63.9825667,11.7977758 C65.1168318,11.4495539 65.7384696,11.5252543 65.9423667,11.7121148 C66.2499034,11.9941984 66.4585747,13.0201383 66.0756459,14.9921341 C55.5115838,13.5032265 46.172894,21.752978 46.4301029,32.5028354 C46.5852637,38.9716351 50.294402,44.7557444 56.1101463,47.5978966 C56.2867909,47.6843545 56.4286238,47.8160333 56.5203278,47.97859 L61.5047684,56.8243827 C62.4492599,58.5001509 64.8683757,58.5023422 65.8144586,56.8241835 L70.7988992,47.9783908 C70.9850921,47.6478987 71.1796399,47.6355476 71.9538524,47.2080395 C75.096256,45.4748984 77.6808766,42.7307583 79.2324844,39.4726523 C81.1861178,40.25655 82.403732,39.9264564 85.9654677,38.9449407 C86.5469227,38.7845754 87.251114,38.5907425 87.822225,38.4608565 C87.3891673,40.4077516 85.7645543,45.5428296 82.7944189,47.8297789 C78.9808454,50.7635684 70.0503479,57.6337796 74.2279524,65.8813398 C77.3840819,72.1128784 67.039433,73.6262891 67.6509257,78.3760917 C68.0358437,81.3628715 67.8357261,83.2595654 65.6740182,85.337741 C64.3615171,86.5993482 63.8005512,88.5550086 63.2578863,90.4463237 C62.3842118,93.4920702 61.6469991,95.5353838 59.4482913,96.164494 C57.4306044,96.7418093 55.8471687,97.4017974 54.5748503,97.9320987 C52.4698357,98.8092275 51.4059898,99.2174121 50.2357194,98.9018609 C50.1834024,98.8879161 50.1485907,98.8749673 50.1271069,98.8658036 C50.0485318,98.6793415 49.990446,98.1352946 49.9476773,97.7314926 C49.7457694,95.838783 49.4081952,92.6707207 45.8019006,88.5908667 C43.6533217,86.160485 43.6879345,85.1847465 43.7360741,83.8344901 C43.7969449,82.1228639 43.8729338,79.992694 40.8679867,75.8839544 C40.1351504,74.8823184 40.0344948,73.5501903 40.6109768,72.4903845 C41.9614724,70.0076101 43.6710259,64.944846 39.9461725,58.9308464 C37.1079238,54.3481823 37.4852828,52.3630385 37.7607926,50.9135748 C37.9758296,49.7810567 38.2437803,48.372033 36.8063549,46.8671884 C32.9874105,42.8684136 29.8056198,41.8337084 24.3521162,43.6483271 C19.0450208,45.4121467 11.7775285,47.8281852 5.67195177,37.8008684 C-0.7248498,27.2954437 5.50704371,17.4751077 12.1125166,14.0257585 C19.7082336,10.0588576 15.6020428,6.2258268 24.0614882,5.45547547 C28.2709206,5.07239152 30.9223796,4.18968484 32.8583087,3.54503604 C34.4091208,3.02848031 35.0379199,2.73723293 35.6999392,3.31434899 C36.0311478,3.60300662 36.1932709,4.01995654 36.1449323,4.45782368 C35.7136649,8.36834776 37.8246473,9.19945863 38.7522302,9.37536249 C39.3651153,9.49150287 40.0860162,10.0883409 40.8492879,10.7202401 C42.4060677,12.0091393 44.5375392,13.7743535 47.7284803,12.8611674 C49.8850163,12.244209 50.9781041,11.1240421 51.7015909,10.3827757 C51.93473,10.1441201 52.2247613,9.8468964 52.3520727,9.80028088 C52.353863,9.79968324 52.5145936,9.75306772 53.053479,9.98435241 C53.145183,10.0235971 53.2362902,10.0632402 53.3271985,10.1038794 C54.0807229,10.4383557 54.9619566,10.0983015 55.2959501,9.34428548 C55.6301425,8.59007029 55.2905791,7.70736361 54.5374526,7.37268809 C54.4348078,7.32706863 54.3317651,7.2820468 54.2285235,7.23782182 C51.669962,6.13936896 50.4549337,7.38503921 49.5675334,8.29463946 C48.9464925,8.93092137 48.3041666,9.58911656 46.9087142,9.98833665 C45.3097625,10.4469218 44.2866959,9.68951922 42.7506042,8.41755303 C41.7297258,7.57249734 40.6742347,6.69855597 39.3070295,6.43958086 C39.2710242,6.43280767 39.2523254,6.42503842 39.2511318,6.42503842 C39.1896643,6.36746626 38.9855682,5.92083381 39.1108903,4.78612443 C39.4407065,1.79655566 36.6844144,-0.603545924 33.7805208,0.134732336 Z" id="Path" fill="#000000"></path>
                </g>
                <g id="016-card" transform="translate(40.000000, 13.000000)" fill-rule="nonzero">
                    <path d="M15.5847547,43.7878393 C15.6347937,43.7902557 15.6848326,43.7914639 15.7348716,43.7914639 L4.7977836,43.7914639 C2.80575624,43.7914639 1.19140392,42.1543885 1.19140392,40.1343221 L1.19140392,4.86531548 C1.19140392,2.84524906 2.80575624,1.2081737 4.7977836,1.2081737 L15.7348716,1.2081737 C13.7428443,1.2081737 12.1273005,2.84524906 12.1273005,4.86531548 L12.1273005,40.1343221 C12.1273005,41.963497 13.4521417,43.4773387 15.1796774,43.7455532 C15.3047748,43.7793821 15.45513,43.7878393 15.5847547,43.7878393 Z" id="Path" fill="#E7E7EF"></path>
                    <g id="Group" transform="translate(5.957020, 1.207811)">
                        <path d="M50.2256578,42.5686713 C50.225896,42.5736248 50.2256578,42.5786991 50.2257769,42.5836526 L50.2450776,42.5836526 C52.237105,42.5836526 53.8514573,40.9465772 53.8514573,38.9265108 L53.8514573,3.65750424 C53.8514573,1.63743781 52.237105,0.000362452109 50.2450776,0.000362452109 L32.4133351,0.000362452109 C34.4053625,0.000362452109 36.0197148,1.63743781 36.0197148,3.65750424 L36.0197148,38.9265108 C36.0197148,40.9465772 34.4053625,42.5836526 32.4133351,42.5836526 L39.7422564,42.5836526 L50.2256578,42.5686713 Z" id="Path" fill="#E7E7EF"></path>
                        <path d="M32.413216,0 L9.77725629,0 C7.78522894,0 6.17040006,1.63755863 6.17040006,3.65762505 L6.17040006,38.92639 C6.17040006,40.9464564 7.78522894,42.5840151 9.77725629,42.5840151 L32.413216,42.5840151 C34.4052433,42.5840151 36.0200722,40.9464564 36.0200722,38.92639 L36.0200722,3.65762505 C36.0200722,1.63755863 34.4052433,0 32.413216,0 Z" id="Path" fill="#FFFFFF"></path>
                        <path d="M26.6825631,19.3389947 L26.6826823,19.3387531 L21.2108023,13.4721033 L15.7389224,19.3387531 C14.433382,21.3696931 15.6882877,24.2003233 18.0937322,24.4568185 C18.2892416,24.4777199 18.2432534,24.4808612 18.4311378,24.4678129 C18.9740606,24.4301179 19.3408939,25.0170487 19.072828,25.4972977 L17.8633147,28.2932533 L24.5666298,28.2932533 L23.3585462,25.5000765 C23.0903612,25.0198275 23.4562413,24.4322926 23.9994023,24.468417 C24.1865719,24.4808612 24.1398689,24.4772367 24.3345443,24.4560936 C26.7190201,24.197182 28.02325,21.3695723 26.6825631,19.3389947 L26.6825631,19.3389947 Z" id="Path" fill="#868EAF"></path>
                        <ellipse id="Oval" fill="#FF7E96" cx="46.2613803" cy="34.8495287" rx="2.7516665" ry="2.79039797"></ellipse>
                        <ellipse id="Oval" fill="#868EAF" cx="28.2296011" cy="34.8495287" rx="2.7516665" ry="2.79039797"></ellipse>
                        <ellipse id="Oval" fill="#868EAF" cx="13.9699258" cy="7.94156735" rx="2.7516665" ry="2.79039797"></ellipse>
                        <polygon id="Path" fill="#FF7E96" points="45.8499886 21.2920075 38.9267404 28.3127049 36.0197148 25.3647611 36.0197148 17.219254 38.9267404 14.2713102"></polygon>
                        <polygon id="Path" fill="#9B98E7" points="8.46543403e-16 4.83305724 6.17028092 4.83305724 6.17028092 37.7509578 0 37.7509578"></polygon>
                    </g>
                    <path d="M56.2020973,0 L4.7977836,0 C2.15215205,0 0,2.18244497 0,4.86531548 L0,40.1343221 C0,42.8170718 2.15215205,45 4.7977836,45 L15.7252212,45 C15.7283189,45 15.7312974,45 15.7343951,45 L38.3703547,45 C38.3734524,45 38.3764309,45 38.3795286,45 L45.699276,45 C46.3571692,45 46.8906799,44.4587382 46.8906799,43.7915847 C46.8906799,43.1244312 46.3571692,42.583411 45.699276,42.583411 L42.5147724,42.583411 C42.9410568,41.8446128 43.1683766,40.9901923 43.1683766,40.1343221 L43.1683766,29.4898285 L44.0411991,30.3749366 C44.4964346,30.8363381 45.269894,30.8373046 45.7262017,30.3749366 L52.6493308,23.3542392 C53.114574,22.8824474 53.114574,22.1174318 52.6493308,21.6455192 L45.7262017,14.6249426 C45.2609585,14.1533924 44.5067998,14.1532716 44.0411991,14.6249426 L43.1683766,15.5100507 L43.1683766,4.8654363 C43.1683766,4.0099285 42.9408185,3.15478316 42.5148916,2.4163474 L56.2020973,2.4163474 C57.5337294,2.4163474 58.617073,3.51493974 58.617073,4.86531548 L58.617073,40.1343221 C58.617073,41.4364917 57.6095027,42.5047589 56.3433978,42.5791824 C56.2725092,42.5693962 56.1995953,42.5661341 56.1259666,42.5697586 C55.4795108,42.6009295 54.9779297,43.1490779 54.9915117,43.8012501 C54.99175,43.8173188 54.9922266,43.8350789 54.9929414,43.8489729 C55.0232031,44.4931711 55.5469442,45 56.1829157,45 L56.2022164,45 C58.8477288,45 61,42.8170718 61,40.1342012 L61,4.86519466 C61,2.18244497 58.8477288,0 56.2020973,0 Z M15.7395181,42.5837734 C14.4281398,42.5837734 13.3189427,41.4656087 13.3189427,40.1342012 L13.3189427,4.8654363 C13.3189427,3.52569248 14.4248039,2.41610576 15.7417818,2.41610576 L38.3634446,2.41610576 C38.3658274,2.41610576 38.3680911,2.41610576 38.3703547,2.41610576 C39.7019869,2.41610576 40.7853305,3.51506056 40.7853305,4.8654363 L40.7853305,40.1344429 C40.7853305,41.4848186 39.7019869,42.5837734 38.3703547,42.5837734 C38.3688059,42.5837734 38.3672571,42.5837734 38.3657083,42.5837734 L15.7395181,42.5837734 L15.7395181,42.5837734 Z M7.14842354,37.7505954 L7.14842354,7.24904219 L10.9358966,7.24904219 L10.9358966,37.7505954 L7.14842354,37.7505954 Z M2.38280785,40.1342012 L2.38280785,4.86519466 C2.38280785,3.51481892 3.46615143,2.41622658 4.7977836,2.41622658 L11.5893817,2.41622658 C11.1683395,3.14644676 10.9426876,3.9869732 10.9369689,4.83257397 L5.95701962,4.83257397 C5.29912637,4.83257397 4.76561569,5.37359416 4.76561569,6.04074767 L4.76561569,38.9586482 C4.76561569,39.6258018 5.29912637,40.1668219 5.95701962,40.1668219 L10.9369689,40.1668219 C10.9426876,41.0131476 11.1694118,41.8527075 11.5909305,42.5831693 L4.7977836,42.5831693 C3.46615143,42.5831693 2.38280785,41.484577 2.38280785,40.1342012 Z M44.88376,17.1877207 L50.1221248,22.4998188 L44.88376,27.8119169 L43.1684958,26.0725092 L43.1684958,18.9272491 L44.88376,17.1877207 Z" id="Shape" fill="#000000"></path>
                    <path d="M51.3959738,42.6763195 C50.394718,42.2529755 49.3952492,43.3585752 49.8768147,44.3340547 C50.103658,44.7934023 50.6138172,45.0624626 51.1150408,44.9857436 C51.6197195,44.9085413 52.0244394,44.5065819 52.1135564,43.9976991 C52.209941,43.4470135 51.9038693,42.8906495 51.3959738,42.6763195 Z" id="Path" fill="#000000"></path>
                    <path d="M31.5206162,30.1618147 C31.7406685,29.8203848 31.775934,29.3893085 31.6143797,29.0157412 L30.6694772,26.8308798 C33.6034285,26.3471271 35.8338558,22.2038162 33.5050185,19.7163074 L28.0331386,13.8495367 C27.8080824,13.6083853 27.4951006,13.47162 27.1675837,13.47162 C26.8400667,13.47162 26.5270849,13.6083853 26.3020287,13.8495367 L20.8300296,19.7161866 C18.5091748,22.2027289 20.7407935,26.3448316 23.6735534,26.8318464 L22.7287701,29.0156203 C22.3893391,29.8002083 22.974795,30.7092382 23.8197386,30.7092382 L30.5230537,30.7092382 C30.9255099,30.7092382 31.300683,30.5033654 31.5206162,30.1618147 Z M30.0722264,24.4732497 C28.6403972,24.3815493 27.570159,25.9100099 28.2428257,27.2358597 L28.6999674,28.2928908 L25.643778,28.2928908 L26.1023494,27.2332017 C26.7567876,25.9438387 25.733729,24.3715215 24.3065463,24.4703501 C22.7332974,24.5750987 21.9070588,22.5085176 22.6389382,21.2938198 L27.1679411,16.4382905 L31.6977779,21.295028 C32.4714756,22.581733 31.6411862,24.3025347 30.1646794,24.4627386 C30.1266736,24.4667256 30.0967693,24.4702293 30.0722264,24.4732497 L30.0722264,24.4732497 Z" id="Shape" fill="#000000"></path>
                    <path d="M34.1865016,32.0587683 C32.0123086,32.0587683 30.2434312,33.8525437 30.2434312,36.0573399 C30.2434312,38.2622569 32.0123086,40.0560324 34.1865016,40.0560324 C36.3608137,40.0560324 38.1296912,38.2622569 38.1296912,36.0573399 C38.1296912,33.8524229 36.3608137,32.0587683 34.1865016,32.0587683 Z M34.1865016,37.6395642 C33.3261888,37.6395642 32.626239,36.9297622 32.626239,36.0572191 C32.626239,35.1847969 33.3261888,34.4749948 34.1865016,34.4749948 C35.0469335,34.4749948 35.7468833,35.1847969 35.7468833,36.0572191 C35.7468833,36.9297622 35.0469335,37.6395642 34.1865016,37.6395642 Z" id="Shape" fill="#000000"></path>
                    <path d="M23.870135,9.1493786 C23.870135,6.94458241 22.1012576,5.15080693 19.9269455,5.15080693 C17.7527524,5.15080693 15.983875,6.94458241 15.983875,9.1493786 C15.983875,11.3542956 17.7527524,13.1480711 19.9269455,13.1480711 C22.1012576,13.1479503 23.870135,11.3542956 23.870135,9.1493786 Z M19.9269455,10.7316029 C19.0666327,10.7316029 18.3666829,10.0218008 18.3666829,9.14925778 C18.3666829,8.27683555 19.0666327,7.5670335 19.9269455,7.5670335 C20.7873774,7.5670335 21.4873272,8.27683555 21.4873272,9.14925778 C21.4873272,10.0218008 20.7873774,10.7316029 19.9269455,10.7316029 Z" id="Shape" fill="#000000"></path>
                    <path d="M56.1614704,36.0572191 C56.1614704,33.8524229 54.392593,32.0586474 52.2184,32.0586474 C50.0440878,32.0586474 48.2752104,33.8524229 48.2752104,36.0572191 C48.2752104,38.2621361 50.0440878,40.0559116 52.2184,40.0559116 C54.392593,40.0559116 56.1614704,38.2621361 56.1614704,36.0572191 Z M50.6580182,36.0572191 C50.6580182,35.1847969 51.3579681,34.4749948 52.2184,34.4749948 C53.0787127,34.4749948 53.7786625,35.1847969 53.7786625,36.0572191 C53.7786625,36.9297622 53.0787127,37.6395642 52.2184,37.6395642 C51.3579681,37.6395642 50.6580182,36.9297622 50.6580182,36.0572191 Z" id="Shape" fill="#000000"></path>
                </g>
                <text id="africa-betting.com" font-family="Prism-Black, Prism" font-size="40" font-weight="normal" fill="#252525">
                    <tspan x="107" y="51">africa</tspan>
                    <tspan x="107" y="91">betting</tspan>
                    <tspan x="262.2" y="91" font-size="16">.com</tspan>
                </text>
            </g>
        </g>
    </g>
</svg>