<?xml version="1.0" encoding="UTF-8"?>
<svg viewBox="0 0 304 102" version="1.1" xmlns="http://www.w3.org/2000/svg" xmlns:xlink="http://www.w3.org/1999/xlink">
    <g id="Page-1" stroke="none" stroke-width="1" fill="none" fill-rule="evenodd">
        <g id="029-africa" fill-rule="nonzero">
            <path d="M89.2262311,71.396115 C88.8504636,69.6990313 86.6545407,69.2448288 85.5893022,70.6171976 C85.1150672,71.2281796 84.5238649,71.7517078 83.8013726,72.0033121 C81.3778806,72.8475709 79.2704789,74.4303072 80.4294106,77.3850139 C81.5885412,80.3397207 76.2146072,84.4550343 81.5885412,86.9876116 C85.9970966,89.0649904 90.8309517,78.6444298 89.2262311,71.396115 L89.2262311,71.396115 Z" id="Path" fill="#43CB8E"/>
            <path d="M89.4915959,37.2863048 C89.3511555,36.0904374 85.5576733,37.7787559 82.0454698,38.4118504 C80.8793768,38.6220187 79.6442572,38.2018814 78.5135728,37.4211711 C77.1260773,41.315559 74.2540115,44.503941 70.5776956,46.3002321 C70.1350895,46.5165759 69.7662843,46.8590207 69.5241937,47.288521 L64.539952,56.1343137 C64.1639855,56.8012742 63.2049725,56.8012742 62.829006,56.1343137 L57.8447643,47.2887202 C57.6022759,46.8586223 57.2326749,46.5159783 56.7894721,46.2994353 C51.6598169,43.7923571 48.0923125,38.5769969 47.9467,32.5112023 C47.7364373,23.7484808 54.5637106,16.5659059 63.313784,16.3645029 C64.7327094,16.3318322 66.109264,16.4892094 67.4223619,16.8095417 C67.3921254,16.4411994 67.4136092,16.0469596 67.5045175,15.6192523 C68.2069185,12.312937 67.9260377,9.07674428 63.570595,10.4134542 C59.2153512,11.749965 56.6162092,9.92100312 53.6657673,8.65461486 C50.7153254,7.38822659 51.2772859,10.3429333 47.3435622,11.4686782 C43.4096397,12.5942238 41.6535379,8.44364975 39.0543959,7.95119863 C37.6491962,7.68505191 37.4964225,6.08219522 37.6527769,4.66580061 C37.8682116,2.71312832 36.0735186,1.14433682 34.1720033,1.62702657 C32.1326337,2.14477757 29.4004115,3.51555272 23.9512842,4.01158965 C14.6786372,4.85584849 18.4719205,9.07674428 11.4473145,12.745027 C4.42231072,16.4131106 -2.60229525,27.0856738 4.42231072,38.6228155 C11.4471156,50.1599572 20.3684627,46.572156 25.5315371,44.8838375 C30.6946115,43.195519 33.4343929,45.516932 35.7524551,47.9439272 C38.0705174,50.3709223 33.5396237,51.4261463 38.7028971,59.7625549 C41.9200962,64.9567987 40.7010894,69.2908466 39.3253305,71.8198382 C38.4621989,73.4063595 38.6227307,75.3534538 39.6887648,76.8110853 C45.0268924,84.1103982 39.5640394,83.805206 44.7090117,89.6255719 C50.3990361,96.0624977 47.1325038,99.650299 49.8720862,100.388976 C52.6116686,101.127652 54.7190703,99.1227866 59.8823436,97.6454332 C65.045617,96.1680799 64.097147,88.9924773 66.7314986,86.4600992 C69.3658501,83.9275219 69.5765107,81.5005268 69.1549906,78.2292728 C68.7334705,74.9580188 79.2704789,72.5310236 75.5826254,65.2500382 C71.8947719,57.9690527 80.2891691,51.7078315 83.9420119,48.8939674 C87.5948548,46.0799041 89.6320363,38.4821721 89.4915959,37.2863048 L89.4915959,37.2863048 Z" id="Path" fill="#43CB8E"/>
            <path d="M57.9617317,93.7713649 C55.2221493,93.0326882 58.4886815,89.4448869 52.7986572,83.0079611 C47.6536849,77.1875952 53.116339,77.4929866 47.7784103,70.1934745 C46.7123761,68.7358431 46.5518444,66.7889479 47.414976,65.2022274 C48.7907349,62.6732359 50.0097417,58.3391879 46.7925425,53.1449441 C41.6294681,44.8087347 46.1603618,43.7535108 43.8421006,41.3263164 C41.5238394,38.8993213 38.784257,36.5777091 33.6211826,38.2662267 C28.4579092,39.9545452 19.5367611,43.5423465 12.5119562,32.0052048 C7.75568149,24.1937188 9.44076735,16.7794607 13.2050077,11.6662961 C12.7057082,12.0284628 12.1276349,12.3892351 11.4471156,12.7446286 C4.42231072,16.4131106 -2.60229525,27.0856738 4.42231072,38.6228155 C11.4471156,50.1599572 20.3684627,46.572156 25.5315371,44.8838375 C30.6946115,43.195519 33.4343929,45.516932 35.7524551,47.9439272 C38.0707163,50.3709223 33.5396237,51.4261463 38.7028971,59.7625549 C41.9200962,64.9567987 40.7010894,69.2908466 39.3253305,71.8198382 C38.4621989,73.4063595 38.6227307,75.3534538 39.6887648,76.8110853 C45.0268924,84.1103982 39.5640394,83.805206 44.7090117,89.6255719 C50.3990361,96.0624977 47.1325038,99.650299 49.8722851,100.388976 C52.6118675,101.127652 54.7192692,99.1227866 59.8825426,97.6454332 C62.5155017,96.8920149 63.5584606,94.6566613 64.2984582,92.3109445 C61.5899079,93.407206 59.9404295,94.3048536 57.9617317,93.7713649 L57.9617317,93.7713649 Z" id="Path" fill="#00BA66"/>
            <path d="M90.6582856,71.028968 C90.0105888,68.1033462 86.2306335,67.280403 84.3868062,69.6565992 C84.0279471,70.1189693 83.6577494,70.418982 83.2869549,70.5482704 C81.10436,71.3084619 79.6595744,72.430621 78.9927809,73.8832721 C78.4393741,75.0891 78.4473311,76.436169 79.0166518,77.8874256 C79.2402424,78.4573701 78.8485609,79.4851028 78.4698095,80.4789696 C77.6653605,82.5900151 76.3190423,86.1232324 80.9289089,88.2956351 C82.6313012,89.0982587 84.3947631,88.6775238 85.8831131,87.4856407 C89.6256707,84.4883026 91.9015611,76.6445444 90.6582856,71.028968 L90.6582856,71.028968 Z M84.0193934,85.1518765 C82.9995097,85.9688434 82.4184524,85.6949274 82.199437,85.591935 C80.1831426,84.6416956 80.3540183,83.9157684 81.2577304,81.5443533 C81.811734,80.0901085 82.4399362,78.4418316 81.7938308,76.7949491 C81.5292618,76.1202194 81.4996221,75.5761724 81.7039171,75.1313329 C82.0142387,74.4554079 82.9006444,73.8468164 84.2674517,73.3705014 C85.191653,73.0485754 86.024747,72.4158793 86.742863,71.4903421 C87.0332921,71.1156251 87.6427955,71.2128403 87.7452414,71.6758081 C88.8383292,76.6124713 86.6008312,83.0846576 84.0193934,85.1518765 Z" id="Shape" fill="#000000"/>
            <path d="M33.7805208,0.134732336 C33.1996624,0.282148934 32.6052773,0.479966072 31.917,0.709258645 C30.1193231,1.30788956 27.6572398,2.12764537 23.7915482,2.4796523 C13.8552905,3.38427226 17.0878068,8.05777685 10.7329782,11.3760448 C2.80187518,15.5176543 -4.28738111,27.1850804 3.12433111,39.3569104 C10.4650274,51.4133968 20.1100603,48.207285 25.2920325,46.4845029 C29.4767983,45.0946034 31.4859315,45.6199244 34.6500179,48.9330129 C35.0110651,49.3107181 35.0178285,49.3641068 34.8294474,50.3551846 C34.4829217,52.1785686 33.9593535,54.9338645 37.4104873,60.5062119 C40.1922416,64.9978363 39.2614759,68.7252849 37.9907489,71.0612403 C36.863844,73.1328419 37.0484455,75.7192064 38.4606075,77.6499654 C40.8538631,80.9226139 40.8053256,82.2856198 40.7540032,83.7285095 C40.6806002,85.7889553 40.8395406,87.4860391 43.5673865,90.5722255 C46.5420971,93.9373081 46.7955264,96.3139028 46.9805258,98.0492352 C47.1454339,99.5985039 47.3590783,102 51.0363888,102 C52.5812332,102 54.0166694,101.401768 55.7212498,100.691379 C56.9850144,100.164663 58.4170689,99.5676261 60.2678585,99.0381216 C64.2222702,97.9065997 65.2777614,94.2279579 66.1255758,91.2720559 C66.5789238,89.6913117 67.0074063,88.1984198 67.7402426,87.4938083 C70.7736358,84.5777487 71.0871402,81.6969494 70.6101202,77.9940039 C70.5548193,77.5653005 72.5697213,75.9809704 72.8545806,75.7506818 C75.6005286,73.5318628 79.749687,70.1787328 76.888562,64.5300874 C74.0334047,58.8933946 79.9808368,53.766086 84.8270252,50.0340555 C88.8496679,46.9351196 91.1567893,38.8405538 90.9485158,37.0675704 C90.8822741,36.5034031 90.5896568,36.0201157 90.1249701,35.7067559 C89.0637102,34.9917854 87.599629,35.3953881 85.173352,36.0639423 C81.5909283,37.0514343 81.2251069,37.076535 80.2676853,36.6693464 C80.5445876,35.671097 80.7343612,34.643165 80.8254684,33.5953119 C80.8968822,32.7731656 80.2895669,32.0488321 79.4686073,31.9773151 C78.6484433,31.9044037 77.9243597,32.5139912 77.8529459,33.3361376 C77.4210817,38.3056706 74.3590434,42.7343441 69.8983699,44.9133208 C69.1772701,45.2657262 68.5898473,45.8177416 68.1997572,46.5102012 L63.6593151,54.5683112 L59.118873,46.5102012 C58.728584,45.8177416 58.1407633,45.265527 57.4186689,44.912524 C52.6088837,42.5618269 49.5412754,37.7791543 49.4131683,32.4313184 C49.3208676,28.587331 50.7127393,24.9563008 53.3321716,22.2065829 C60.5660457,14.6116399 73.2965899,17.2766929 76.9868305,27.0231214 C77.2790499,27.7948672 78.1405901,28.1829314 78.9108242,27.8904888 C79.6812571,27.5978469 80.0689601,26.7352606 79.7769396,25.963714 C77.8927307,20.9884038 73.8545719,17.2605568 68.9813299,15.669852 C69.575715,12.7051847 69.2417215,10.6867726 67.9576666,9.50883428 C66.842896,8.48648025 65.2111218,8.2952371 63.1084943,8.94088195 C62.3145883,9.18451776 61.5743918,9.31440374 60.8461308,9.33810992 C60.0223862,9.36500349 59.3764797,10.0552717 59.4033345,10.8798086 C59.4295924,11.6882094 60.0920096,12.3254874 60.8934747,12.3254874 C60.9099854,12.3254874 60.9264961,12.3252881 60.9428079,12.3246905 C61.9386218,12.292219 62.9330433,12.1201002 63.9825667,11.7977758 C65.1168318,11.4495539 65.7384696,11.5252543 65.9423667,11.7121148 C66.2499034,11.9941984 66.4585747,13.0201383 66.0756459,14.9921341 C55.5115838,13.5032265 46.172894,21.752978 46.4301029,32.5028354 C46.5852637,38.9716351 50.294402,44.7557444 56.1101463,47.5978966 C56.2867909,47.6843545 56.4286238,47.8160333 56.5203278,47.97859 L61.5047684,56.8243827 C62.4492599,58.5001509 64.8683757,58.5023422 65.8144586,56.8241835 L70.7988992,47.9783908 C70.9850921,47.6478987 71.1796399,47.6355476 71.9538524,47.2080395 C75.096256,45.4748984 77.6808766,42.7307583 79.2324844,39.4726523 C81.1861178,40.25655 82.403732,39.9264564 85.9654677,38.9449407 C86.5469227,38.7845754 87.251114,38.5907425 87.822225,38.4608565 C87.3891673,40.4077516 85.7645543,45.5428296 82.7944189,47.8297789 C78.9808454,50.7635684 70.0503479,57.6337796 74.2279524,65.8813398 C77.3840819,72.1128784 67.039433,73.6262891 67.6509257,78.3760917 C68.0358437,81.3628715 67.8357261,83.2595654 65.6740182,85.337741 C64.3615171,86.5993482 63.8005512,88.5550086 63.2578863,90.4463237 C62.3842118,93.4920702 61.6469991,95.5353838 59.4482913,96.164494 C57.4306044,96.7418093 55.8471687,97.4017974 54.5748503,97.9320987 C52.4698357,98.8092275 51.4059898,99.2174121 50.2357194,98.9018609 C50.1834024,98.8879161 50.1485907,98.8749673 50.1271069,98.8658036 C50.0485318,98.6793415 49.990446,98.1352946 49.9476773,97.7314926 C49.7457694,95.838783 49.4081952,92.6707207 45.8019006,88.5908667 C43.6533217,86.160485 43.6879345,85.1847465 43.7360741,83.8344901 C43.7969449,82.1228639 43.8729338,79.992694 40.8679867,75.8839544 C40.1351504,74.8823184 40.0344948,73.5501903 40.6109768,72.4903845 C41.9614724,70.0076101 43.6710259,64.944846 39.9461725,58.9308464 C37.1079238,54.3481823 37.4852828,52.3630385 37.7607926,50.9135748 C37.9758296,49.7810567 38.2437803,48.372033 36.8063549,46.8671884 C32.9874105,42.8684136 29.8056198,41.8337084 24.3521162,43.6483271 C19.0450208,45.4121467 11.7775285,47.8281852 5.67195177,37.8008684 C-0.7248498,27.2954437 5.50704371,17.4751077 12.1125166,14.0257585 C19.7082336,10.0588576 15.6020428,6.2258268 24.0614882,5.45547547 C28.2709206,5.07239152 30.9223796,4.18968484 32.8583087,3.54503604 C34.4091208,3.02848031 35.0379199,2.73723293 35.6999392,3.31434899 C36.0311478,3.60300662 36.1932709,4.01995654 36.1449323,4.45782368 C35.7136649,8.36834776 37.8246473,9.19945863 38.7522302,9.37536249 C39.3651153,9.49150287 40.0860162,10.0883409 40.8492879,10.7202401 C42.4060677,12.0091393 44.5375392,13.7743535 47.7284803,12.8611674 C49.8850163,12.244209 50.9781041,11.1240421 51.7015909,10.3827757 C51.93473,10.1441201 52.2247613,9.8468964 52.3520727,9.80028088 C52.353863,9.79968324 52.5145936,9.75306772 53.053479,9.98435241 C53.145183,10.0235971 53.2362902,10.0632402 53.3271985,10.1038794 C54.0807229,10.4383557 54.9619566,10.0983015 55.2959501,9.34428548 C55.6301425,8.59007029 55.2905791,7.70736361 54.5374526,7.37268809 C54.4348078,7.32706863 54.3317651,7.2820468 54.2285235,7.23782182 C51.669962,6.13936896 50.4549337,7.38503921 49.5675334,8.29463946 C48.9464925,8.93092137 48.3041666,9.58911656 46.9087142,9.98833665 C45.3097625,10.4469218 44.2866959,9.68951922 42.7506042,8.41755303 C41.7297258,7.57249734 40.6742347,6.69855597 39.3070295,6.43958086 C39.2710242,6.43280767 39.2523254,6.42503842 39.2511318,6.42503842 C39.1896643,6.36746626 38.9855682,5.92083381 39.1108903,4.78612443 C39.4407065,1.79655566 36.6844144,-0.603545924 33.7805208,0.134732336 Z" id="Path" fill="#000000"/>
        </g>
        <g id="030-roulette" transform="translate(40.000000, 0.000000)" fill-rule="nonzero">
            <circle id="Oval" fill="#FFFFFF" cx="30.5" cy="30.5" r="22.808877"/>
            <path d="M15.2656074,27.4358223 C16.4968066,21.3303418 21.3111602,16.5207539 27.4202148,15.2990859 C27.5305391,16.4331855 28.2545566,17.3885742 29.2567676,17.8261777 C29.6356348,17.9940469 30.0551289,18.0862617 30.4951152,18.0862617 C30.927834,18.0862617 31.3402988,17.997502 31.7142812,17.835709 C32.724832,17.4017988 33.4573086,16.4427168 33.5700156,15.3038516 C39.6695391,16.5338594 44.4731699,21.3373711 45.7018672,27.4357031 C44.505457,27.487291 43.4840645,28.2185762 43.017748,29.2542656 C42.8427305,29.6414727 42.7456309,30.0706172 42.7456309,30.5226367 C42.7456309,30.9745371 42.8427305,31.4026094 43.017748,31.7898164 C43.4840645,32.8268164 44.5066484,33.5581016 45.70425,33.6083789 C44.4730508,39.7019453 39.6754961,44.5030742 33.5831211,45.7378477 C33.5843125,45.7174746 33.5843125,45.6971016 33.5843125,45.6767285 C33.5843125,44.4311133 32.8482617,43.358252 31.7873145,42.8703711 C31.3941504,42.6882051 30.9565469,42.5875312 30.4949961,42.5875312 C30.0262969,42.5875312 29.5815449,42.6917793 29.1834961,42.8788301 C28.1333906,43.3714766 27.4056797,44.4385 27.4056797,45.6768477 C27.4056797,45.6984121 27.4056797,45.7187852 27.4068711,45.7403496 C26.1790078,45.5036172 24.9504297,45.0946074 23.8296738,44.5510879 C20.6096602,43.0226328 18.0010762,40.417623 16.4654727,37.2013027 C15.9256465,36.067084 15.4741035,34.853041 15.2666797,33.6096895 C16.4763145,33.567752 17.5096211,32.828127 17.9759375,31.7814766 C18.1485723,31.3966523 18.2444805,30.971082 18.2444805,30.5227559 C18.2444805,30.0744297 18.1485723,29.647668 17.9759375,29.2640352 C17.5097402,28.2163125 16.4764336,27.4778789 15.2656074,27.4358223 L15.2656074,27.4358223 Z" id="Path" fill="#E7E7EF"/>
            <circle id="Oval" fill="#9B98E7" cx="30.4845117" cy="30.522041" r="4.43477148"/>
            <g id="Group" transform="translate(26.585873, 17.826178)" fill="#FFFFFF">
                <path d="M0,14.8125156 C0.417230469,15.5772793 1.05260742,16.2066992 1.82332812,16.6154707 L1.82332812,16.6166621 C2.44309766,16.9439414 3.14805273,17.1298008 3.89840039,17.1298008 C4.76395703,17.1298008 5.57077734,16.8828223 6.25285742,16.4536777 C6.89776562,16.0508633 7.43008594,15.4826816 7.79691992,14.8125156 L7.45522461,16.1611875 L5.20144141,25.0443125 C4.80827734,24.8621465 4.37067383,24.7614727 3.90912305,24.7614727 C3.44042383,24.7614727 2.99567187,24.8657207 2.59762305,25.0527715 L0.364212891,16.2451816 L0,14.8125156 Z" id="Path"/>
                <path d="M0.115089844,10.3816758 L0.4231875,9.13367773 L2.67089453,0 C3.04976172,0.167869141 3.46925586,0.260083984 3.90924219,0.260083984 C4.34196094,0.260083984 4.75442578,0.171324219 5.1284082,0.00953125 L7.39529688,9.21636133 L7.68183008,10.3815566 C7.32333594,9.79776758 6.83426367,9.30142773 6.25285742,8.93816797 C5.57077734,8.50902344 4.76395703,8.26085352 3.89840039,8.26085352 C3.14793359,8.26085352 2.44309766,8.4479043 1.82332813,8.776375 L1.82094531,8.776375 C1.11968359,9.15178711 0.528746094,9.70674414 0.115089844,10.3816758 L0.115089844,10.3816758 Z" id="Path"/>
            </g>
            <g id="Group" transform="translate(17.976176, 26.602672)" fill="#FFFFFF">
                <path d="M0,5.17880469 C0.172634766,4.79398047 0.268542969,4.36841016 0.268542969,3.92008398 C0.268542969,3.47175781 0.172634766,3.04499609 0,2.66136328 L9.03300391,0.357302734 L10.4307617,0 C9.7295,0.375173828 9.13844336,0.93025 8.72490625,1.60518164 C7.89771289,3.07251758 7.8581582,4.54938477 8.60981641,6.03590234 C9.02704687,6.80066602 9.66242383,7.43008594 10.4331445,7.83885742 L10.4331445,7.84004883 L8.97414844,7.46844922 L0,5.17880469 Z" id="Path"/>
                <path d="M16.4067363,6.03602148 C17.1583945,4.54950391 17.1188398,3.07251758 16.2916465,1.60530078 C15.9331523,1.02151172 15.4440801,0.525171875 14.8626738,0.161912109 L14.8626738,0.160720703 L16.0051133,0.439986328 L25.0416914,2.65171289 C24.8666738,3.03891992 24.7695742,3.46806445 24.7695742,3.92008398 C24.7695742,4.37198437 24.8666738,4.80005664 25.0416914,5.18726367 L16.065041,7.38469336 L14.8626738,7.678375 L14.8626738,7.67718359 C15.5077012,7.27436914 16.0399023,6.70606836 16.4067363,6.03602148 L16.4067363,6.03602148 Z" id="Path"/>
            </g>
            <g id="Group" transform="translate(1.191406, 1.191406)">
                <circle id="Oval" fill="#9B98E7" cx="29.3035898" cy="44.4848457" r="3.08919727"/>
                <circle id="Oval" fill="#9B98E7" cx="29.3035898" cy="13.8053008" r="3.08919727"/>
                <circle id="Oval" fill="#9B98E7" transform="translate(13.972895, 29.324595) rotate(-81.375771) translate(-13.972895, -29.324595) " cx="13.9728951" cy="29.3245949" r="3.09015631"/>
                <circle id="Oval" fill="#9B98E7" transform="translate(44.650998, 29.314774) rotate(-81.375771) translate(-44.650998, -29.314774) " cx="44.6509984" cy="29.3147737" r="3.09015631"/>
                <g id="Path">
                    <path d="M20.5230449,50.3628867 L18.0194238,56.3626895 C21.4942793,57.8142988 25.3074941,58.6171875 29.3085938,58.6171875 L29.3085938,52.1174707 C26.1948535,52.1174707 23.2271797,51.4925781 20.5230449,50.3628867 L20.5230449,50.3628867 Z" fill="#FF7E96"/>
                    <path d="M29.3085937,52.1174707 L29.3085937,58.6171875 C33.2554844,58.6171875 37.0191367,57.8351484 40.455748,56.4205918 L37.9835801,50.408041 C35.3092305,51.5087812 32.3801582,52.1174707 29.3085937,52.1174707 Z" fill="#E7E7EF"/>
                    <path d="M37.9836992,50.408041 L40.4558672,56.4205918 C44.0663047,54.9345508 47.315627,52.7501074 50.0329863,50.0328672 L45.4370176,45.4368984 C43.3221523,47.5515254 40.7935117,49.251543 37.9836992,50.408041 L37.9836992,50.408041 Z" fill="#FF7E96"/>
                    <path d="M50.3628867,38.0941426 L56.3626895,40.5977637 C57.8142988,37.1230273 58.6171875,33.3096934 58.6171875,29.3085938 L52.1174707,29.3085938 C52.1174707,32.422334 51.4925781,35.3900078 50.3628867,38.0941426 Z" fill="#FF7E96"/>
                    <path d="M45.4368984,45.4368984 L50.0328672,50.0328672 C52.7146035,47.3511309 54.877959,44.1514902 56.3625703,40.5976445 L50.3627676,38.0940234 C49.2074609,40.8597539 47.5238848,43.3499121 45.4368984,45.4368984 L45.4368984,45.4368984 Z" fill="#E7E7EF"/>
                    <path d="M6.4997168,29.3085938 L0,29.3085938 C0,33.2554844 0.782039063,37.0191367 2.1965957,40.455748 L8.20926563,37.9835801 C7.10840625,35.3092305 6.4997168,32.3801582 6.4997168,29.3085938 Z" fill="#E7E7EF"/>
                    <path d="M13.1802891,45.4368984 L8.58432031,50.0328672 C11.2660566,52.7146035 14.4656973,54.877959 18.0194238,56.3625703 L20.5230449,50.3627676 C17.7574336,49.2074609 15.2673945,47.5238848 13.1802891,45.4368984 L13.1802891,45.4368984 Z" fill="#E7E7EF"/>
                    <path d="M8.20914648,37.9836992 L2.19647656,40.4558672 C3.68251758,44.0663047 5.86696094,47.315627 8.58420117,50.0329863 L13.1801699,45.4370176 C11.0656621,43.3222715 9.36564453,40.7935117 8.20914648,37.9836992 L8.20914648,37.9836992 Z" fill="#FF7E96"/>
                    <path d="M29.3085938,6.4997168 L29.3085938,0 C25.3617031,0 21.5980508,0.782039062 18.1614395,2.1965957 L20.6336074,8.20926562 C23.307957,7.10840625 26.2370293,6.4997168 29.3085938,6.4997168 Z" fill="#E7E7EF"/>
                    <path d="M13.1802891,13.1802891 L8.58420117,8.58432031 C5.90246484,11.2660566 3.73910937,14.4656973 2.25449805,18.019543 L8.25430078,20.5231641 C9.40972656,17.7574336 11.0933027,15.2673945 13.1802891,13.1802891 Z" fill="#E7E7EF"/>
                    <path d="M20.6334883,8.20914648 L18.1613203,2.19647656 C14.5508828,3.68251758 11.3015605,5.86696094 8.58420117,8.58420117 L13.1801699,13.1801699 C15.294916,11.0656621 17.8236758,9.36564453 20.6334883,8.20914648 Z" fill="#FF7E96"/>
                    <path d="M0,29.3085938 L6.4997168,29.3085938 C6.4997168,26.1947344 7.12460938,23.2271797 8.25430078,20.5230449 L2.25449805,18.0194238 C0.802888672,21.4942793 0,25.3074941 0,29.3085938 Z" fill="#FF7E96"/>
                    <path d="M52.1174707,29.3085937 L58.6171875,29.3085937 C58.6171875,25.3617031 57.8351484,21.5980508 56.4205918,18.1614395 L50.408041,20.6336074 C51.5087813,23.307957 52.1174707,26.2370293 52.1174707,29.3085937 Z" fill="#E7E7EF"/>
                    <path d="M38.0941426,8.25430078 L40.5977637,2.25449805 C37.1229082,0.802888672 33.3096934,0 29.3085937,0 L29.3085937,6.4997168 C32.422334,6.4997168 35.3900078,7.12460938 38.0941426,8.25430078 Z" fill="#FF7E96"/>
                    <path d="M50.408041,20.6334883 L56.4205918,18.1613203 C54.9345508,14.5508828 52.7502266,11.3015605 50.0328672,8.58420117 L45.4368984,13.1801699 C47.5515254,15.2950352 49.251543,17.8237949 50.408041,20.6334883 Z" fill="#FF7E96"/>
                    <path d="M45.4368984,13.1802891 L50.0328672,8.58432031 C47.3511309,5.90258398 44.1514902,3.73922852 40.5976445,2.25461719 L38.0940234,8.25441992 C40.8597539,9.40972656 43.3499121,11.0933027 45.4368984,13.1802891 Z" fill="#E7E7EF"/>
                </g>
            </g>
            <path d="M46.6654766,26.3232871 C45.9222773,23.4453262 44.4278965,20.8248281 42.3050488,18.7018613 C40.1929238,16.5897363 37.5881523,15.0996445 34.7269902,14.3520371 C34.4151992,12.2965039 32.6361914,10.7161035 30.4949961,10.7161035 C28.3559453,10.7161035 26.5783672,12.293168 26.2638359,14.3457227 C23.3982656,15.0897559 20.7887285,16.5791328 18.6718379,18.6930449 C16.5432715,20.8188711 15.0453164,23.4438965 14.3010449,26.3275762 C12.3486875,26.7245527 10.8746797,28.4544746 10.8746797,30.5223984 C10.8746797,32.5834121 12.3387988,34.3084492 14.2815059,34.7130508 C14.5182383,35.6608145 14.8838809,36.6502773 15.3898711,37.7134883 C15.6725918,38.3075234 16.3835039,38.5598633 16.9776582,38.2771426 C17.5718125,37.9944219 17.8241523,37.2835098 17.5414316,36.6893555 C17.173168,35.915418 16.8929492,35.196166 16.6954141,34.5152773 C17.4150234,34.2367266 18.0549277,33.7600449 18.5305371,33.152666 L25.9684863,35.0498613 L27.817668,42.3392422 C27.1912266,42.8439219 26.7107324,43.5229043 26.4481465,44.2839746 C25.7252012,44.0735723 25.0146465,43.8016934 24.3497227,43.4791797 C23.7575937,43.1919316 23.0448945,43.4393867 22.7578848,44.0313965 C22.4707559,44.6234062 22.7179727,45.3361055 23.3099824,45.6232344 C24.2651328,46.0864531 25.3003457,46.4593633 26.3442559,46.7221875 C26.8122402,48.5785176 28.495459,49.9568555 30.4951152,49.9568555 C32.4979883,49.9568555 34.1832324,48.5741094 34.648,46.713252 C37.5420449,45.9717207 40.1771973,44.471502 42.3096953,42.3374551 C44.430041,40.2154414 45.923707,37.5966113 46.6676211,34.7210332 C48.630582,34.3322773 50.1154316,32.597709 50.1154316,30.5222793 C50.1154316,28.4461348 48.6295098,26.711209 46.6654766,26.3232871 L46.6654766,26.3232871 Z M41.5722148,30.9171113 L35.8028301,32.3294043 C36.208623,31.130373 36.2065977,29.9063223 35.7984219,28.7139629 L41.572334,30.1269707 C41.5483867,30.3893184 41.5483867,30.6548828 41.5722148,30.9171113 L41.5722148,30.9171113 Z M44.2577637,26.5397656 C43.5486387,26.8189121 42.9272012,27.2840371 42.4570723,27.890582 L34.9653906,26.0572461 L33.0821348,18.407584 C33.6603242,17.9692656 34.1171094,17.3920293 34.4098379,16.7322285 C36.7496406,17.3956035 38.8792793,18.6458652 40.6201621,20.386748 C42.3469863,22.1134531 43.5906953,24.2227188 44.2577637,26.5397656 L44.2577637,26.5397656 Z M28.0437969,32.6584707 C27.0637461,31.5396211 26.9890449,29.839127 27.8519805,28.6299688 C28.5880313,27.5988066 29.9210957,27.0844766 31.1577754,27.3518281 C34.0430039,27.9756484 34.6144023,31.9810371 32.011418,33.3776035 C30.6992031,34.0816055 29.0259922,33.7797031 28.0437969,32.6584707 L28.0437969,32.6584707 Z M28.67,25.1968125 L30.1303066,19.2625371 C30.3656094,19.2823145 30.6035332,19.282791 30.8390742,19.2643242 L32.2996191,25.1960977 C31.143002,24.801623 29.8399609,24.799002 28.67,25.1968125 Z M30.4843926,36.1472656 C31.1228672,36.1472656 31.7510957,36.0399199 32.3438203,35.8326152 L30.9268809,41.417332 C30.6285527,41.417332 30.3409473,41.3902871 30.0427383,41.4194766 L28.625918,35.832377 C29.2213828,36.0396816 29.8517559,36.1472656 30.4843926,36.1472656 L30.4843926,36.1472656 Z M30.4949961,13.098916 C31.5415273,13.098916 32.3927871,13.9502949 32.3927871,14.996707 C32.3927871,16.0519355 31.4957773,16.9204707 30.4419785,16.8917578 C29.4304746,16.8634023 28.5972051,16.0111895 28.5972051,14.996707 C28.5972051,13.9502949 29.4484648,13.098916 30.4949961,13.098916 Z M20.3556523,20.379123 C22.1008242,18.636334 24.2346328,17.386668 26.5784863,16.7261523 C26.8682363,17.3819023 27.3196602,17.9565176 27.8902246,18.3937637 L26.0229336,25.9814727 L18.5302988,27.8932031 C18.0581445,27.289875 17.4246738,26.815457 16.7111406,26.5359531 C17.3797578,24.2167617 18.6257305,22.106543 20.3556523,20.379123 L20.3556523,20.379123 Z M13.2574922,30.5223984 C13.2574922,29.4759863 14.1088711,28.6246074 15.1552832,28.6246074 C16.1869219,28.6246074 17.0530742,29.4920703 17.0530742,30.5223984 C17.0530742,31.5546328 16.1869219,32.4201895 15.1552832,32.4201895 C14.108752,32.4200703 13.2574922,31.5688105 13.2574922,30.5223984 Z M25.1875195,32.391834 L19.4180156,30.9199707 C19.4422012,30.6564316 19.4422012,30.3894375 19.4180156,30.1258984 L25.1916895,28.6532012 C24.7551582,29.8854727 24.7531328,31.1524141 25.1875195,32.391834 L25.1875195,32.391834 Z M30.4949961,47.574043 C29.4489414,47.574043 28.5979199,46.7233789 28.5973242,45.6774434 C28.6050684,44.6444941 29.4575195,43.7790566 30.4952344,43.7790566 C31.526873,43.7790566 32.3927871,44.6453281 32.3927871,45.6763711 C32.3927871,46.7226641 31.5414082,47.574043 30.4949961,47.574043 L30.4949961,47.574043 Z M40.6240937,40.6531641 C38.9144258,42.3641426 36.8294648,43.6018945 34.5388672,44.2750391 C34.2733027,43.5109902 33.7882812,42.8277187 33.1552871,42.3241113 L35.0198379,34.9738496 L42.4570723,33.1537383 C42.9276777,33.7612363 43.5495918,34.2265996 44.2593125,34.5055078 C43.5915293,36.8201719 42.3485352,38.927293 40.6240937,40.6531641 L40.6240937,40.6531641 Z M45.834709,32.4200703 C44.802832,32.4200703 43.9371562,31.5543945 43.9371562,30.5227559 C43.9371562,29.4901641 44.8022363,28.6243691 45.834709,28.6243691 C46.8811211,28.6243691 47.7326191,29.475748 47.7326191,30.5221602 C47.7326191,31.5685723 46.8811211,32.4200703 45.834709,32.4200703 Z" id="Shape" fill="#000000"/>
            <path d="M58.7138105,18.8992773 C57.173084,15.1562363 54.9366953,11.8031426 52.0668359,8.9332832 C49.2351016,6.10154883 45.9318086,3.8855332 42.2483379,2.34659375 C38.5211426,0.789544922 34.5684141,0 30.5,0 C26.4881777,0 22.5851309,0.769171875 18.8992773,2.28618945 C15.1561172,3.82691602 11.8031426,6.06342383 8.93316406,8.93316406 C6.10119141,11.7652559 3.88517578,15.068668 2.34659375,18.7516621 C0.789544922,22.4789766 0,26.4317051 0,30.5 C0,34.5119414 0.769171875,38.41475 2.28618945,42.1003652 C2.28618945,42.1004844 2.28630859,42.1006035 2.28630859,42.1006035 C3.82679688,45.8434063 6.06294727,49.1961426 8.93256836,52.066002 C8.93280664,52.0662402 8.93304492,52.0665977 8.9332832,52.0668359 C11.7648984,54.8984512 15.0680723,57.1144668 18.7510664,58.653168 C18.7513047,58.6532871 18.7514238,58.6532871 18.7516621,58.6534063 C22.4788574,60.2104551 26.4315859,61 30.5,61 C34.5114648,61 38.4141543,60.2309473 42.0995312,58.714168 L42.1006035,58.7138105 C45.8436445,57.173084 49.1967383,54.9366953 52.0665977,52.0668359 C54.898332,49.2351016 57.1143477,45.9319277 58.6528105,42.2490527 C58.6529297,42.2488145 58.6530488,42.2486953 58.653168,42.248457 C60.2104551,38.5212617 61,34.5685332 61,30.5 C61,26.4885352 60.2309473,22.5857266 58.714168,18.9003496 C58.7139297,18.8999922 58.7139297,18.8996348 58.7138105,18.8992773 Z M45.7858613,45.7858613 C43.7511777,47.8205449 41.3744414,49.4058301 38.7216562,50.4977539 C36.1106895,51.5725215 33.3444824,52.1174707 30.5001191,52.1174707 C27.6557559,52.1174707 30.5001191,52.1174707 30.5001191,52.1174707 C27.6159629,52.1174707 24.8144902,51.5583438 22.1738574,50.4549824 C22.1737383,50.4549824 22.1736191,50.4548633 22.1735,50.4548633 C19.563248,49.3644883 17.2218965,47.7935 15.2142578,45.7859805 C15.2141387,45.7858613 15.2139004,45.7857422 15.2137813,45.7855039 C13.1794551,43.7510586 11.5942891,41.3745605 10.5023652,38.7217754 C9.42747852,36.1104512 8.8825293,33.3442441 8.8825293,30.5 C8.8825293,27.6156055 9.44189453,24.814252 10.5450176,22.1737383 C11.6356309,19.5633672 13.2065,17.2218965 15.2141387,15.2141387 C15.2142578,15.2140195 15.214377,15.2137813 15.2146152,15.2136621 C17.2491797,13.1792168 19.6255586,11.5941699 22.2781055,10.5023652 C22.2782246,10.5023652 22.2783437,10.5023652 22.2784629,10.5022461 C24.8893105,9.42759766 27.6555176,8.88264844 30.5,8.88264844 C33.3845137,8.88264844 36.1858672,9.44189453 38.8261426,10.5451367 C38.8263809,10.5452559 38.8266191,10.5452559 38.8268574,10.545375 C41.4369902,11.63575 43.7783418,13.2066191 45.7858613,15.2141387 C47.8205449,17.2489414 49.4058301,19.6256777 50.4977539,22.2784629 C51.5725215,24.8893105 52.1174707,27.6555176 52.1174707,30.5 C52.1174707,33.3842754 51.5583437,36.1856289 50.4549824,38.8263809 C49.3644883,41.4366328 47.7935,43.7781035 45.7858613,45.7858613 Z M4.96649609,42.2864629 L7.79310742,41.1243652 L8.77923437,40.7189297 C9.79085742,42.870252 11.1070039,44.8433398 12.7073008,46.6078125 L9.79324023,49.521873 C7.80942969,47.3660234 6.19114258,44.9402012 4.96649609,42.2864629 L4.96649609,42.2864629 Z M2.40747461,31.6914062 L6.52866797,31.6914062 C6.64256641,34.0318047 7.09279883,36.3179941 7.87245508,38.5151855 L4.05959766,40.0828379 C3.08085742,37.3866855 2.52697266,34.5736562 2.40747461,31.6914062 Z M4.10939844,20.7787207 L7.9141543,22.3663887 C7.10876367,24.5988457 6.64447266,26.9251855 6.52854883,29.3085938 L2.40747461,29.3085938 C2.52887891,26.3754707 3.09944336,23.5158574 4.10939844,20.7787207 Z M14.3923066,48.2926992 C16.1255645,49.8646406 18.0607656,51.1630352 20.1676484,52.1675098 L18.5800996,55.9721465 C15.9785449,54.7547676 13.597877,53.1573301 11.4782461,51.2068789 L14.3923066,48.2926992 Z M56.8906016,40.2212793 L53.0858457,38.6337305 C53.8912363,36.4011543 54.3555273,34.0748145 54.471332,31.6914062 L58.5926445,31.6914062 C58.4711211,34.6246484 57.9005566,37.4842617 56.8906016,40.2212793 L56.8906016,40.2212793 Z M54.471332,29.3085938 C54.3574336,26.9681953 53.9072012,24.6820059 53.1275449,22.4848145 L56.9404023,20.9171621 C57.9192617,23.6134336 58.4730273,26.4264629 58.5925254,29.3085938 L54.471332,29.3085938 Z M52.2207656,20.2811895 C51.2092617,18.1301055 49.8929961,16.1566602 48.2926992,14.3921875 L51.2067598,11.478127 C53.190332,13.6339766 54.8087383,16.0597988 56.0335039,18.7135371 L52.2207656,20.2811895 Z M46.6078125,12.7073008 C44.8744355,11.1353594 42.9392344,9.83696484 40.8323516,8.83249023 L42.4200195,5.02773437 C45.0216934,6.24523242 47.4023613,7.84266992 49.521873,9.79312109 L46.6078125,12.7073008 Z M38.6336113,7.9141543 C36.4012734,7.10876367 34.0749336,6.6445918 31.6914062,6.52866797 L31.6914062,2.40735547 C34.6245293,2.52887891 37.4841426,3.09944336 40.2212793,4.1092793 L38.6336113,7.9141543 Z M29.3085938,2.40747461 L29.3085938,6.52866797 C26.9680762,6.64256641 24.6820059,7.09279883 22.4848145,7.87245508 L20.9171621,4.05959766 C23.6133145,3.08073828 26.4264629,2.52697266 29.3085938,2.40747461 Z M18.7135371,4.96649609 L20.2811895,8.77923437 C18.1298672,9.79085742 16.1567793,11.1070039 14.3921875,12.7073008 L11.4780078,9.79312109 C13.6338574,7.80954883 16.0596797,6.19114258 18.7135371,4.96649609 L18.7135371,4.96649609 Z M9.79312109,11.478127 L12.7071816,14.3921875 C11.1353594,16.1255645 9.8368457,18.0607656 8.83237109,20.1677676 L5.02773438,18.5799805 C6.24511328,15.9787832 7.84278906,13.5977578 9.79312109,11.478127 L9.79312109,11.478127 Z M22.3662695,53.0858457 C24.5988457,53.8912363 26.9251855,54.3555273 29.3085938,54.471332 L29.3085938,58.5926445 C26.3753516,58.4711211 23.5157383,57.9005566 20.7786016,56.8906016 L22.3662695,53.0858457 Z M31.6914062,54.471332 C34.0319238,54.3574336 36.3181133,53.9072012 38.5151855,53.1275449 L40.0828379,56.9404023 C37.3865664,57.9192617 34.5735371,58.4730273 31.6914062,58.5925254 L31.6914062,54.471332 Z M42.2864629,56.0335039 L40.7189297,52.2207656 C42.8697754,51.2092617 44.8433398,49.892877 46.6078125,48.2926992 L49.521873,51.2067598 C47.3660234,53.1904512 44.9402012,54.8087383 42.2864629,56.0335039 Z M51.2068789,49.521873 L48.2926992,46.6078125 C49.8646406,44.8745547 51.1630352,42.9392344 52.1675098,40.8324707 L55.9721465,42.4200195 C54.7547676,45.0213359 53.1572109,47.4023613 51.2068789,49.521873 L51.2068789,49.521873 Z" id="Shape" fill="#000000"/>
            <path d="M20.6160937,41.054668 C20.4198691,40.5754844 19.9153086,40.2734629 19.4000254,40.3246934 C18.910834,40.3734219 18.4943184,40.7273887 18.3662422,41.2013301 C18.0909082,42.2198633 19.2382324,43.0686211 20.1336934,42.5276035 C20.6295566,42.228084 20.8392441,41.5898477 20.6160938,41.054668 L20.6160937,41.054668 Z" id="Path" fill="#000000"/>
        </g>
        <text class="logo_text" id="africa-betting.com" font-family="Prism-Black, Prism" font-size="40" font-weight="normal" fill="currentColor">
            <tspan x="107" y="51">africa</tspan>
            <tspan x="107" y="91">betting</tspan>
            <tspan x="262.2" y="91" font-size="16">.com</tspan>
        </text>
    </g>
</svg>
